<?xml version="1.0" encoding="iso-8859-1"?>
<!-- Generator: Adobe Illustrator 13.0.2, SVG Export Plug-In . SVG Version: 6.00 Build 14948)  -->
<!DOCTYPE svg PUBLIC "-//W3C//DTD SVG 1.1//EN" "http://www.w3.org/Graphics/SVG/1.1/DTD/svg11.dtd">
<svg version="1.1" id="Layer_1" xmlns="http://www.w3.org/2000/svg" xmlns:xlink="http://www.w3.org/1999/xlink" x="0px" y="0px"
	 width="123.547px" height="123.539px" viewBox="-0.258 -0.548 123.547 123.539"
	 style="enable-background:new -0.258 -0.548 123.547 123.539;" xml:space="preserve">
<g>
	<path d="M108.656,123.199c8.148,0,14.742-6.617,14.742-14.773V14.41c0-8.156-6.594-14.742-14.742-14.742H14.633
		c-8.156,0-14.75,6.586-14.75,14.742v94.016c0,8.156,6.594,14.773,14.75,14.773H108.656z"/>
	<path d="M14.633,2.168c-6.75,0-12.25,5.492-12.25,12.242v94.016c0,6.766,5.5,12.273,12.25,12.273h94.023
		c6.758,0,12.258-5.508,12.258-12.273V14.41c0-6.75-5.5-12.242-12.258-12.242H14.633z"/>
	<polygon style="fill:#FFFFFF;" points="77.797,80.082 82.602,84.16 91,74.277 81.117,65.879 76.992,70.73 	"/>
	<polygon style="fill:#FFFFFF;" points="105.406,86.387 86.781,86.355 86.758,105.355 99.43,105.355 105.406,98.91 	"/>
	<polygon style="fill:#FFFFFF;" points="71.742,106.355 78.039,104.473 72.375,85.527 58.93,89.535 56.32,100.863 	"/>
	<path style="fill:#FFFFFF;" d="M58.781,23.324c-14.547-8.547-22.203-8.812-35.438-10.352l-0.484,2.484
		c16.43,3.812,20.594,7.672,31.898,14.531l1.562,7.469L19,98.934c-0.367,0.734-0.586,1.539-0.609,2.414
		c-0.047,3.055,2.367,5.547,5.391,5.594c2.008,0.023,3.766-1.023,4.766-2.586L65.273,44.27l14.938,9.57l7.688-12.672L58.781,23.324"
		/>
</g>
</svg>
